<svg xmlns="http://www.w3.org/2000/svg" data-name="Layer 1" viewBox="0 0 894.2491 448.2822"><path fill="#f0f0f0" d="M294.494 448.2822q-40.4748 0-80.8288-1.4492c-38.4404-1.3809-78.1899-2.8076-115.1355-23.2989-25.845-14.333-48.7349-37.329-66.1942-66.5039a223.7704 223.7704 0 0 1-25.3693-63.6044 261.476 261.476 0 0 1 .9529-123.7793A219.834 219.834 0 0 1 22.66 129.246C49.6032 73.4526 98.7452 36 157.4862 26.492a6.8065 6.8065 0 0 1 1.463-.0312c.2641.0142.5275.0293.796.018l.3455-.1098a16.8815 16.8815 0 0 1 2.7208-.6982c90.594-13.4869 186.365 13.8017 276.9523 78.9135 70.042 50.3511 162.8675 77.4644 283.7813 82.8892l1.7166.0898c33.6596 1.9336 66.2183 15.8106 94.1603 40.1329 27.5795 24.0058 48.2871 56.0341 59.8838 92.624 1.4257 4.4609 2.7326 9.1045 3.8844 13.8007a26.0388 26.0388 0 0 1-6.941 24.6905v.0088l-.301.3095a33.1683 33.1683 0 0 1-2.2675 2.0557l-.9168.7559c-7.7272 6.3652-13.8303 11.3935-21.1347 15.2988a64.9832 64.9832 0 0 1-15.4187 5.8213c-29.4653 7.1836-59.3876 13.8437-88.936 19.7968-57.3848 11.5704-116.2814 21.1153-175.0541 28.3682a2269.1409 2269.1409 0 0 1-277.7262 17.0557ZM158.262 28.437a3.5069 3.5069 0 0 0-.5393.0366C99.5309 37.8926 50.854 74.9776 24.1783 130.2187a217.6243 217.6243 0 0 0-14.5952 40 259.1885 259.1885 0 0 0-.941 122.6807 221.622 221.622 0 0 0 25.1233 62.996c17.2884 28.8888 39.9442 51.6544 65.5183 65.836 36.614 20.3076 76.176 21.7285 114.4358 23.1016a2266.3137 2266.3137 0 0 0 358.3155-15.5947c58.7345-7.249 117.593-16.7872 174.94-28.3506 29.5284-5.9483 59.43-12.6035 88.8753-19.7832a63.3582 63.3582 0 0 0 15.0473-5.6787c7.1573-3.8262 13.2022-8.8067 20.8552-15.1114l.9168-.7549a31.6924 31.6924 0 0 0 1.9583-1.7607l.1806-.1895c6.2892-6.3388 8.7348-14.7021 6.7099-22.9443v-.001c-1.1394-4.6465-2.4324-9.2402-3.8437-13.6553-23.69-74.746-84.9735-127.5693-152.4963-131.4472l-1.7073-.0899c-55.2318-2.4785-103.5638-9.3437-147.7515-20.9902-52.7499-13.9023-98.8013-34.83-136.8758-62.2007-90.242-64.8623-185.6127-92.0493-275.8111-78.6264a15.473 15.473 0 0 0-2.4786.6425l-.623.1743a9.3744 9.3744 0 0 1-1.0618-.0126c-.2082-.0108-.41-.0215-.6072-.0215Z"/><path fill="#2f2e41" d="M279.3267 146.0557c-2.498-2.3966-5.053-15.7615-8.2421-17.1183 2.3839 5.2686.653 6.6634.6403 12.4456a39.123 39.123 0 0 1-1.1412 9.7448h-54.0242V108.966a28.8467 28.8467 0 0 1 28.8476-28.8476 17.2139 17.2139 0 0 1 4.2758.626 27.4285 27.4285 0 0 1 19.3506 19.4038c4.1186 15.0536 10.6686 40.1114 10.2932 45.9075Z"/><path fill="#ffb6b6" d="m219.7295 197.9227.0267-32.8626-19.3177 1.7262 6.8176 20.7264-3.1907 52.0965a8.1728 8.1728 0 1 0 9.8899 6.8885ZM257.746 432.76l7.804-.001 3.713-30.102h-11.519l.002 30.103z"/><path fill="#2f2e41" d="m255.1028 428.9098 12.337-.7363v5.2857l11.7292 8.1006a3.3017 3.3017 0 0 1-1.876 6.0187h-14.6878l-2.5317-5.2284-.9885 5.2284h-5.5378Z"/><path fill="#ffb6b6" d="m212.62 432.76 7.805-.001 3.712-30.102h-11.518l.001 30.103z"/><path fill="#2f2e41" d="m209.9773 428.9098 12.3371-.7363v5.2857l11.7292 8.1006a3.3017 3.3017 0 0 1-1.8761 6.0187h-14.6877l-2.5317-5.2284-.9885 5.2284h-5.5379Z"/><path fill="#e6e6e6" d="m250.7962 129.5714-16.1674.317-11.4122 12.0462-9.1493 1.342a18.2656 18.2656 0 0 0-15.5772 16.897l1.585 8.7065h9.5102l5.5017 32.3029c-2.1393 5.451-2.2847 9.7539 2.1065 11.444l13.6312 25.6775 40.2598-18.0693c2.0418-3.5101 2.696-7.0358.609-10.4642l2.8781-49.45h9.6774c0-9.2487-3.1283-17.0457-12.3196-18.0749a108.6538 108.6538 0 0 0-10.989-.6285Z"/><path fill="#2f2e41" d="M271.0845 220.2352s-39.3088 6.9741-53.891-7.6082c0 0-1.4805 2.5134-3.7113 6.6816-.6415 1.1986-1.8806 2.0107-2.6289 3.4626-.68 1.3196-2.4292 2.942-3.17 4.4386-.596 1.204.3601 2.7774-.26 4.0782-7.468 15.6637-16.1928 37.7586-14.3223 52.3485 1.2062 9.4086 3.6976 31.3017 6.3215 54.8161.205 1.8372-1.4555 4.1973-1.2494 6.049.1943 1.7463 2.2552 2.9837 2.4495 4.734.129 1.162-1.3102 2.3475-1.1815 3.5082.1412 1.2735 1.8502 2.5219 1.9906 3.7904 3.5945 32.4682 6.8856 62.781 6.8856 62.781h18.3864l3.469-69.2317-2.835-25.2362 6.6571-51.038 9.1932 48.502 1.1826 27.2971 9.7154 70.9748h16.9985v-68.708l1.268-3.5694-1.268-4.5779 1.268-4.9323-1.268-5.3716Z"/><path fill="#ffb6b6" d="M255.7585 120.1959a18.326 18.326 0 1 1 3.1751-15.3145c.0527.2197.0972.438.1404.6648a18.301 18.301 0 0 1-3.3155 14.6497Z"/><path fill="#2f2e41" d="M251.9374 109.7394a9.633 9.633 0 0 0-2.815-5.1038 13.1421 13.1421 0 0 1-.7608 5.5096 25.3951 25.3951 0 0 1-13.9546-2.7643c-3.2334-2.1936-7.3482-2.0035-12.1414 0a17.7501 17.7501 0 0 1 17.7524-17.7523h3.17a17.7556 17.7556 0 0 1 17.7524 17.7523 52.8522 52.8522 0 0 1-9.003 2.3585Z"/><circle cx="113.2491" cy="285" r="51" fill="#f0f0f0"/><circle cx="438.2491" cy="51" r="51" fill="#f0f0f0"/><circle cx="843.2491" cy="293" r="51" fill="#f0f0f0"/><path fill="#6c63ff" d="M530.249 56.5618v115.646a9.1186 9.1186 0 0 1-9.0235 9.1193.8018.8018 0 0 1-.0998.0042h-13.4599a40.6065 40.6065 0 0 1-40.6065-40.6065v-84.163a9.1234 9.1234 0 0 1 9.1234-9.1234h5.454c-2.5267 7.3706 31.7654 10.4738 33.648 0h5.841a9.1234 9.1234 0 0 1 9.1234 9.1234Z"/><path fill="#3f3d56" d="M490.3062 38.7908a1.197 1.197 0 0 1 1.1956-1.1957h8.1304a1.1957 1.1957 0 0 1 0 2.3913h-8.1304a1.197 1.197 0 0 1-1.1956-1.1956Z"/><path fill="#3f3d56" d="M523.919 196h-51.416a15.0633 15.0633 0 0 1-15.0464-15.0459v-80.8413a2.1865 2.1865 0 0 1-.9111-1.7788v-8.1304a2.1856 2.1856 0 0 1 .9111-1.7783v-2.1821a2.1856 2.1856 0 0 1-.9111-1.7783v-8.131a2.1856 2.1856 0 0 1 .9111-1.7782v-3.9439a2.1835 2.1835 0 0 1-1.1504-1.9297v-8.1303a2.1843 2.1843 0 0 1 1.1504-1.9302V47.8149a15.0633 15.0633 0 0 1 15.0464-15.0458h51.416a15.0629 15.0629 0 0 1 15.0459 15.0459V71.371a1.8859 1.8859 0 0 1 .8857 1.5981v15.503a1.8867 1.8867 0 0 1-.8857 1.5986v90.8833A15.0629 15.0629 0 0 1 523.919 196ZM472.503 34.7691a13.061 13.061 0 0 0-13.0464 13.0459v12.5078l-.962.0371a.1955.1955 0 0 0-.1884.192v8.1302a.1962.1962 0 0 0 .1885.1919l.9619.0366V75.96l-.7607.1875a.1965.1965 0 0 0-.1504.1866v8.1308a.1965.1965 0 0 0 .1503.1865l.7608.1875v4.9908l-.7607.1875a.1965.1965 0 0 0-.1504.1865v8.1304a.1966.1966 0 0 0 .1503.187l.7608.1875v82.2456A13.061 13.061 0 0 0 472.503 194h51.416a13.0609 13.0609 0 0 0 13.0459-13.0459V88.3584h.8857V73.0835h-.8857V47.8149a13.0609 13.0609 0 0 0-13.046-13.0459Z"/><circle cx="504.1757" cy="38.7908" r="1.1957" fill="#3f3d56"/><path fill="#fff" d="M244.0801 270.4028h-133.787a7.1884 7.1884 0 0 1-7.17-7.169v-65.189a7.1884 7.1884 0 0 1 7.169-7.1698h133.787a7.1884 7.1884 0 0 1 7.17 7.169v65.189a7.1884 7.1884 0 0 1-7.169 7.1698Z"/><path fill="#3f3d56" d="M244.0801 270.4028h-133.787a7.1884 7.1884 0 0 1-7.17-7.169v-65.189a7.1884 7.1884 0 0 1 7.169-7.1698h133.787a7.1884 7.1884 0 0 1 7.17 7.169v65.189a7.1884 7.1884 0 0 1-7.169 7.1698Zm-133.787-77.5278a5.1853 5.1853 0 0 0-5.17 5.1709v65.187a5.185 5.185 0 0 0 5.1709 5.17h133.7842a5.1852 5.1852 0 0 0 5.1709-5.171v-65.187a5.1853 5.1853 0 0 0-5.171-5.1699Z"/><path fill="#6c63ff" d="M184.3569 260.769c-26.3858 0-53.8988-.2522-64.1643-.4157a5.1763 5.1763 0 0 1-5.0695-5.1552v-53.9616a1.8295 1.8295 0 0 1 1.823-1.8276h120.4757a1.8294 1.8294 0 0 1 1.8273 1.8227v36.612a22.8416 22.8416 0 0 1-22.457 22.7522c-9.5673.1246-20.8963.1731-32.4352.1731Z"/><path fill="#3f3d56" d="M230.2705 234.48H121.4112a4.4385 4.4385 0 0 1-4.164-2.9356l-12.3214-34.5664a4.4228 4.4228 0 0 1 4.1577-5.9067l136.0723-.1895a4.4231 4.4231 0 0 1 4.3594 5.1978l.105.0444-.3906.9117-.004.0092-14.895 34.7554a4.4096 4.4096 0 0 1-4.06 2.6797Zm14.8916-41.5982-136.0747.1895a2.4226 2.4226 0 0 0-2.2778 3.2353l12.3208 34.565a2.4335 2.4335 0 0 0 2.2822 1.6084h108.858a2.4131 2.4131 0 0 0 2.2216-1.4668l14.8955-34.7564.7325.314-.7325-.314a2.4212 2.4212 0 0 0-2.2256-3.375Z"/><circle cx="176.9831" cy="233.4802" r="8.524" fill="#fff"/><circle cx="498.9831" cy="159.4802" r="8.524" fill="#fff"/><path fill="#3f3d56" d="m821.379 283.12-22.77-22.48a11.884 11.884 0 0 0-8.43-3.46h-.08a11.9143 11.9143 0 0 0-8.46 3.56 27.9914 27.9914 0 0 0-.49 38.84c.24.26.49.51.74.76a27.248 27.248 0 0 0 4.56 3.65 27.6764 27.6764 0 0 0 15.11 4.43h.17a27.8265 27.8265 0 0 0 19.75-8.32 12.023 12.023 0 0 0-.1-16.98Zm-1.32 15.57a26.0917 26.0917 0 0 1-32.76 3.48 26.7864 26.7864 0 0 1-4.01-3.25 26.0017 26.0017 0 0 1-.23-36.77 9.913 9.913 0 0 1 7.06-2.97h.06a9.911 9.911 0 0 1 7.02 2.88l22.77 22.49a10.007 10.007 0 0 1 .09 14.14ZM746.669 209.34l-22.77-22.49a11.9264 11.9264 0 0 0-8.43-3.46h-.07a11.947 11.947 0 0 0-8.47 3.57 28.077 28.077 0 0 0-4.72 33l.01.01a27.562 27.562 0 0 0 4.33 5.93c.19.22.41.44.63.66a27.8353 27.8353 0 0 0 19.67 8.08h.18a27.854 27.854 0 0 0 19.75-8.33 11.999 11.999 0 0 0-.11-16.97Zm-1.32 15.57a25.8554 25.8554 0 0 1-18.33 7.73h-.17a26.0005 26.0005 0 0 1-18.49-44.27 10.0076 10.0076 0 0 1 14.14-.09l22.77 22.48a10.0191 10.0191 0 0 1 .08 14.15Z"/><path fill="#6c63ff" d="m822.8345 290.1876-25.1032-24.7936a8.7268 8.7268 0 0 0-12.3275.0765 22 22 0 1 0 31.3052 30.919ZM748.129 216.4035 723.0258 191.61a8.7268 8.7268 0 0 0-12.3275.0765 22 22 0 1 0 31.3052 30.919Z"/><path fill="#3f3d56" d="m795.249 305.63-.6 1.58q-4.23-1.605-8.2-3.22c-46.88-19.13-69.26-41.52-84.23-84.02l-.01-.01q-1.065-3-2.07-6.14l1.58-.51a25.5419 25.5419 0 0 0 2.3 5.78q1.23 3.495 2.53 6.81c14.07 35.87 34.82 56.37 74.6 73.68q3 1.305 6.15 2.59a26.0866 26.0866 0 0 0 7.95 3.46Z"/><path fill="#3f3d56" d="m722.076 234.2429 1.4058-1.4233 51.938 51.2979-1.4058 1.4233z"/><path fill="#ffb6b6" d="m283.7648 190.3146.0266-32.8627-19.3176 1.7263 6.8176 20.7264-24.7471 37.5141a8.1728 8.1728 0 1 0 9.8898 6.8886Z"/></svg>